<svg width="30" height="30" viewBox="0 0 30 30" fill="none" xmlns="http://www.w3.org/2000/svg">
<circle cx="15" cy="15" r="15" fill="#FF666A"/>
<path d="M7.00001 24C7.07972 24.0096 7.1603 24.0096 7.24001 24L11.24 23C11.4175 22.9578 11.58 22.8679 11.71 22.74L24 10.41C24.3725 10.0353 24.5816 9.52837 24.5816 8.99999C24.5816 8.47162 24.3725 7.96472 24 7.59L22.42 5.99999C22.2343 5.81404 22.0137 5.66652 21.7709 5.56588C21.5281 5.46523 21.2678 5.41342 21.005 5.41342C20.7422 5.41342 20.4819 5.46523 20.2391 5.56588C19.9963 5.66652 19.7758 5.81404 19.59 5.99999L7.30001 18.29C7.1708 18.4206 7.07776 18.5826 7.03001 18.76L6.03001 22.76C5.99407 22.8894 5.98456 23.0247 6.00204 23.1578C6.01953 23.291 6.06365 23.4192 6.13177 23.535C6.1999 23.6507 6.29064 23.7515 6.39858 23.8314C6.50651 23.9113 6.62944 23.9686 6.76001 24C6.83972 24.0096 6.9203 24.0096 7.00001 24ZM21 7.40999L22.59 8.99999L21 10.59L19.42 8.99999L21 7.40999ZM8.91001 19.51L18 10.41L19.59 12L10.49 21.1L8.38001 21.62L8.91001 19.51Z" fill="black"/>
</svg>
